<svg width="20" height="34" viewBox="0 0 20 34" fill="none" xmlns="http://www.w3.org/2000/svg">
<path d="M2.52215 1.27517C2.67399 0.744164 2.36661 0.190613 1.83561 0.0387778C1.3046 -0.113058 0.751054 0.194318 0.599218 0.725321L1.56068 1.00024L2.52215 1.27517ZM19.1854 29.6169C19.6915 29.3959 19.9227 28.8065 19.7017 28.3003L16.1003 20.0523C15.8793 19.5462 15.2898 19.315 14.7837 19.536C14.2775 19.757 14.0464 20.3465 14.2674 20.8526L17.4686 28.1842L10.137 31.3854C9.63088 31.6064 9.39973 32.1959 9.62072 32.702C9.84172 33.2082 10.4312 33.4393 10.9373 33.2183L19.1854 29.6169ZM1.56068 1.00024C0.599218 0.725321 0.599032 0.725974 0.598825 0.726698C0.598729 0.727035 0.598502 0.727833 0.598311 0.728509C0.597928 0.729861 0.597465 0.731501 0.596924 0.733429C0.595842 0.737285 0.594447 0.742289 0.592757 0.748428C0.589376 0.760705 0.58481 0.777524 0.579188 0.798773C0.567944 0.841269 0.552473 0.901506 0.533807 0.978597C0.496482 1.13275 0.446342 1.35448 0.391684 1.63669C0.282425 2.20081 0.154774 3.00836 0.0756493 4.00222C-0.0823998 5.98743 -0.0481507 8.73279 0.725097 11.7721C2.28548 17.9052 6.81949 25.0824 18.4201 29.6315L18.7852 28.7005L19.1503 27.7695C8.141 23.4523 4.06275 16.7794 2.66335 11.2789C1.95671 8.50146 1.92419 5.98418 2.06934 4.16095C2.14182 3.25059 2.25826 2.51747 2.3552 2.01698C2.40364 1.76688 2.44712 1.57531 2.47764 1.44925C2.4929 1.38623 2.50491 1.33963 2.51266 1.31031C2.51654 1.29566 2.51935 1.28533 2.52098 1.27943C2.52179 1.27648 2.5223 1.27464 2.5225 1.27393C2.5226 1.27357 2.52263 1.27349 2.52257 1.2737C2.52254 1.2738 2.52243 1.27417 2.52242 1.27422C2.5223 1.27466 2.52215 1.27517 1.56068 1.00024Z" fill="#F8F4E8"/>
</svg>
