<svg width="18" height="30" viewBox="0 0 18 30" fill="none" xmlns="http://www.w3.org/2000/svg">
<path d="M14.7747 1.27579C14.6225 0.744884 14.9295 0.191139 15.4604 0.0389673C15.9913 -0.113204 16.5451 0.193821 16.6973 0.724728L15.736 1.00026L14.7747 1.27579ZM0.599839 25.7086C0.0937586 25.4875 -0.137233 24.8979 0.0839044 24.3919L3.68754 16.1448C3.90868 15.6387 4.49821 15.4077 5.00429 15.6289C5.51037 15.85 5.74136 16.4395 5.52022 16.9456L2.31699 24.2763L9.6477 27.4796C10.1538 27.7007 10.3848 28.2902 10.1636 28.7963C9.94249 29.3024 9.35297 29.5334 8.84689 29.3122L0.599839 25.7086ZM15.736 1.00026C16.6973 0.724728 16.6974 0.725368 16.6976 0.72607C16.6977 0.726387 16.6979 0.727152 16.6981 0.727786C16.6985 0.729055 16.6989 0.730572 16.6994 0.732337C16.7004 0.735867 16.7017 0.740386 16.7032 0.745883C16.7062 0.756877 16.7103 0.771784 16.7152 0.790509C16.7252 0.827955 16.7388 0.88069 16.7551 0.947949C16.7878 1.08244 16.8315 1.27519 16.8792 1.52006C16.9745 2.00953 17.0858 2.70905 17.1554 3.56932C17.2944 5.28731 17.2685 7.66331 16.6047 10.2936C15.2633 15.6088 11.3517 21.8103 1.36506 25.7233L1.00024 24.7923L0.635422 23.8612C10.0275 20.1811 13.4838 14.4866 14.6655 9.80415C15.2633 7.43553 15.2879 5.28723 15.1619 3.73064C15.099 2.95362 14.999 2.32828 14.916 1.90221C14.8746 1.68932 14.8375 1.52663 14.8116 1.42012C14.7987 1.36688 14.7886 1.32773 14.7821 1.30341C14.7789 1.29125 14.7766 1.28281 14.7753 1.27818C14.7747 1.27586 14.7743 1.27449 14.7742 1.27409C14.7741 1.27389 14.7741 1.27393 14.7742 1.27421C14.7743 1.27435 14.7744 1.27475 14.7744 1.27482C14.7745 1.27527 14.7747 1.27579 15.736 1.00026Z" fill="#F8F4E8"/>
</svg>
