<svg width="118" height="118" viewBox="0 0 118 118" fill="none" xmlns="http://www.w3.org/2000/svg">
<path d="M1.13548 3.18953C0.589212 3.2642 0.0851105 2.88046 0.00953587 2.33242C-0.0660388 1.78438 0.315532 1.27959 0.861799 1.20492L0.998639 2.19723L1.13548 3.18953ZM43.6348 56.8808L44.5737 57.2235L43.6348 56.8808ZM103.419 41.5098L102.84 42.3242V42.3242L103.419 41.5098ZM109.042 117.329C108.548 117.574 107.949 117.37 107.704 116.874L103.71 108.792C103.465 108.296 103.667 107.695 104.161 107.451C104.655 107.206 105.254 107.409 105.499 107.905L109.049 115.09L116.205 111.544C116.699 111.299 117.298 111.503 117.543 111.999C117.789 112.495 117.587 113.095 117.093 113.34L109.042 117.329ZM0.998639 2.19723L0.861799 1.20492C20.7633 -1.51525 34.9504 0.562095 44.9015 5.50558C54.8805 10.463 60.4988 18.2532 63.3341 26.7228C66.1604 35.1655 66.2205 44.2702 65.1438 51.9429C64.0706 59.5912 61.8469 65.9563 59.9791 68.9175L59.135 68.3808L58.2908 67.8442C59.9495 65.2145 62.1139 59.1593 63.1663 51.6598C64.2152 44.1848 64.1384 35.4143 61.4411 27.3568C58.7527 19.3261 53.4605 11.9909 44.018 7.30006C34.5475 2.59527 20.802 0.501474 1.13548 3.18953L0.998639 2.19723ZM59.135 68.3808L59.9791 68.9175C56.272 74.7947 50.2495 76.8038 45.8366 74.4586C41.3672 72.0833 39.3793 65.7227 42.6959 56.538L43.6348 56.8808L44.5737 57.2235C41.3905 66.0389 43.6264 71.0191 46.7688 72.6892C49.9677 74.3893 54.9451 73.1484 58.2908 67.8442L59.135 68.3808ZM43.6348 56.8808L42.6959 56.538C44.3002 52.0951 48.0212 48.2144 52.8032 45.0703C57.5988 41.9171 63.55 39.4448 69.772 37.8542C75.9952 36.2632 82.5299 35.5439 88.504 35.927C94.4649 36.3093 99.9513 37.7952 103.998 40.6954L103.419 41.5098L102.84 42.3242C99.2058 39.7202 94.1302 38.2946 88.3807 37.9259C82.6444 37.558 76.3202 38.2481 70.269 39.7951C64.2165 41.3424 58.4777 43.7365 53.9005 46.746C49.3095 49.7646 45.975 53.3431 44.5737 57.2235L43.6348 56.8808ZM103.419 41.5098L103.998 40.6954C110.391 45.2763 113.864 52.4203 115.527 60.4097C117.189 68.3981 117.063 77.331 116.176 85.6532C115.288 93.9839 113.631 101.754 112.198 107.437C111.481 110.28 110.819 112.605 110.336 114.22C110.094 115.028 109.897 115.659 109.76 116.089C109.692 116.304 109.638 116.469 109.602 116.58C109.584 116.636 109.57 116.678 109.56 116.707C109.555 116.722 109.551 116.733 109.549 116.74C109.548 116.744 109.547 116.747 109.546 116.749C109.546 116.75 109.545 116.751 109.545 116.751C109.545 116.752 109.545 116.753 108.599 116.431C107.652 116.109 107.652 116.109 107.652 116.109C107.652 116.109 107.653 116.108 107.653 116.108C107.653 116.106 107.654 116.104 107.655 116.101C107.657 116.094 107.661 116.085 107.665 116.071C107.674 116.045 107.687 116.005 107.704 115.951C107.739 115.845 107.791 115.685 107.858 115.476C107.992 115.056 108.185 114.437 108.423 113.641C108.899 112.05 109.553 109.754 110.261 106.942C111.68 101.317 113.315 93.6443 114.19 85.4362C115.066 77.2195 115.174 68.5178 113.572 60.8149C111.969 53.113 108.679 46.509 102.84 42.3242L103.419 41.5098Z" fill="#9DB0CC"/>
</svg>
