<svg width="48" height="108" viewBox="0 0 48 108" fill="none" xmlns="http://www.w3.org/2000/svg">
<path d="M0.899489 1.99499C0.350012 1.93936 -0.0503371 1.44884 0.0052844 0.899359C0.0609059 0.349882 0.551435 -0.0504675 1.10091 0.005154L1.0002 1.00007L0.899489 1.99499ZM0.722088 104.795C0.191604 104.641 -0.113903 104.086 0.0397214 103.556L2.5432 94.9111C2.69682 94.3806 3.25141 94.0751 3.7819 94.2288C4.31239 94.3824 4.61789 94.937 4.46427 95.4675L2.23895 103.152L9.92322 105.377C10.4537 105.531 10.7592 106.085 10.6056 106.616C10.452 107.146 9.89738 107.452 9.36689 107.298L0.722088 104.795ZM1.0002 1.00007L1.10091 0.005154C20.3964 1.95836 40.7509 16.9153 46.1214 37.0975C48.8173 47.2282 47.719 58.6224 40.8847 70.2495C34.0627 81.856 21.5515 93.6546 1.48276 104.71L1.00025 103.834L0.517748 102.958C20.3856 92.0135 32.5768 80.437 39.1605 69.2361C45.7321 58.0558 46.7429 47.2103 44.1887 37.6118C39.0592 18.3355 19.4771 3.87552 0.899489 1.99499L1.0002 1.00007Z" fill="#9DB0CC"/>
</svg>
